<?xml version="1.0" encoding="UTF-8" standalone="no"?><svg xmlns="http://www.w3.org/2000/svg" xmlns:xlink="http://www.w3.org/1999/xlink" contentScriptType="application/ecmascript" contentStyleType="text/css" height="757px" preserveAspectRatio="none" style="width:2594px;height:757px;" version="1.1" viewBox="0 0 2594 757" width="2594px" zoomAndPan="magnify"><defs/><g><text fill="#000000" font-family="sans-serif" font-size="18" lengthAdjust="spacingAndGlyphs" textLength="347" x="1129.5" y="16.708">TipOS — Visão Geral dos Componentes</text><!--MD5=[f04600f0575a07dfe97362a654bdaa04]
cluster kernel--><polygon fill="#E8F0FE" points="22,144.9531,229,144.9531,236,167.25,1925,167.25,1925,745.9531,22,745.9531,22,144.9531" style="stroke: #000000; stroke-width: 1.5;"/><line style="stroke: #000000; stroke-width: 1.5;" x1="22" x2="236" y1="167.25" y2="167.25"/><text fill="#000000" font-family="sans-serif" font-size="14" font-weight="bold" lengthAdjust="spacingAndGlyphs" textLength="201" x="26" y="159.9482">OvsbMk — Kernel (ring 0)</text><!--MD5=[80714ef8a8f996994cf0ffa70ea9f84c]
cluster ul--><polygon fill="#FFFFFF" points="1949,144.9531,2211,144.9531,2218,167.25,2221,167.25,2221,364.9531,1949,364.9531,1949,144.9531" style="stroke: #000000; stroke-width: 1.5;"/><line style="stroke: #000000; stroke-width: 1.5;" x1="1949" x2="2218" y1="167.25" y2="167.25"/><text fill="#000000" font-family="sans-serif" font-size="14" font-weight="bold" lengthAdjust="spacingAndGlyphs" textLength="256" x="1953" y="159.9482">src/userland — Userland (ring 3)</text><!--MD5=[b50f3f178224be510955ec312bfca166]
cluster irmaos--><polygon fill="#FFFFFF" points="2245,144.9531,2358,144.9531,2365,167.25,2572,167.25,2572,248.9531,2245,248.9531,2245,144.9531" style="stroke: #000000; stroke-width: 1.5;"/><line style="stroke: #000000; stroke-width: 1.5;" x1="2245" x2="2365" y1="167.25" y2="167.25"/><text fill="#000000" font-family="sans-serif" font-size="14" font-weight="bold" lengthAdjust="spacingAndGlyphs" textLength="107" x="2249" y="159.9482">Repos irmãos</text><!--MD5=[cb76ffbfbf2ad469590be32074c51c9a]
entity boot--><rect fill="#FEFECE" height="52.5938" style="stroke: #A80036; stroke-width: 1.5;" width="238" x="752" y="179.9531"/><rect fill="#FEFECE" height="5" style="stroke: #A80036; stroke-width: 1.5;" width="10" x="747" y="184.9531"/><rect fill="#FEFECE" height="5" style="stroke: #A80036; stroke-width: 1.5;" width="10" x="747" y="222.5469"/><text fill="#000000" font-family="sans-serif" font-size="14" lengthAdjust="spacingAndGlyphs" textLength="83" x="762" y="202.9482">boot64.asm</text><text fill="#000000" font-family="sans-serif" font-size="14" lengthAdjust="spacingAndGlyphs" textLength="218" x="762" y="219.2451">(boot, long mode, GDT, paging)</text><!--MD5=[1c7c6823ac207d5a530ca5fd4897b6b2]
entity kmain--><rect fill="#FEFECE" height="52.5938" style="stroke: #A80036; stroke-width: 1.5;" width="75" x="833.5" y="295.9531"/><rect fill="#FEFECE" height="5" style="stroke: #A80036; stroke-width: 1.5;" width="10" x="828.5" y="300.9531"/><rect fill="#FEFECE" height="5" style="stroke: #A80036; stroke-width: 1.5;" width="10" x="828.5" y="338.5469"/><text fill="#000000" font-family="sans-serif" font-size="14" lengthAdjust="spacingAndGlyphs" textLength="55" x="843.5" y="318.9482">kernel.c</text><text fill="#000000" font-family="sans-serif" font-size="14" lengthAdjust="spacingAndGlyphs" textLength="51" x="843.5" y="335.2451">(kmain)</text><!--MD5=[9c280bcdde8d8f5201a742e791e69ed8]
entity idt--><rect fill="#FEFECE" height="52.5938" style="stroke: #A80036; stroke-width: 1.5;" width="118" x="38" y="427.9531"/><rect fill="#FEFECE" height="5" style="stroke: #A80036; stroke-width: 1.5;" width="10" x="33" y="432.9531"/><rect fill="#FEFECE" height="5" style="stroke: #A80036; stroke-width: 1.5;" width="10" x="33" y="470.5469"/><text fill="#000000" font-family="sans-serif" font-size="14" lengthAdjust="spacingAndGlyphs" textLength="63" x="48" y="450.9482">idt.c/asm</text><text fill="#000000" font-family="sans-serif" font-size="14" lengthAdjust="spacingAndGlyphs" textLength="98" x="48" y="467.2451">(interrupções)</text><!--MD5=[3bd6f44eac7f1f3b4e97918753e50823]
entity syscall--><rect fill="#FEFECE" height="52.5938" style="stroke: #A80036; stroke-width: 1.5;" width="168" x="1741" y="427.9531"/><rect fill="#FEFECE" height="5" style="stroke: #A80036; stroke-width: 1.5;" width="10" x="1736" y="432.9531"/><rect fill="#FEFECE" height="5" style="stroke: #A80036; stroke-width: 1.5;" width="10" x="1736" y="470.5469"/><text fill="#000000" font-family="sans-serif" font-size="14" lengthAdjust="spacingAndGlyphs" textLength="57" x="1751" y="450.9482">syscall.c</text><text fill="#000000" font-family="sans-serif" font-size="14" lengthAdjust="spacingAndGlyphs" textLength="148" x="1751" y="467.2451">(30 syscalls, int 0x80)</text><!--MD5=[2844129fefbfc2bd297b4d415d9e9044]
entity proc--><rect fill="#FEFECE" height="52.5938" style="stroke: #A80036; stroke-width: 1.5;" width="146" x="724" y="427.9531"/><rect fill="#FEFECE" height="5" style="stroke: #A80036; stroke-width: 1.5;" width="10" x="719" y="432.9531"/><rect fill="#FEFECE" height="5" style="stroke: #A80036; stroke-width: 1.5;" width="10" x="719" y="470.5469"/><text fill="#000000" font-family="sans-serif" font-size="14" lengthAdjust="spacingAndGlyphs" textLength="68" x="734" y="450.9482">process.c</text><text fill="#000000" font-family="sans-serif" font-size="14" lengthAdjust="spacingAndGlyphs" textLength="126" x="734" y="467.2451">(PCB 64 slots, RR)</text><!--MD5=[e35db7c651b6c460ad2880ac9bc676be]
entity mem--><rect fill="#FEFECE" height="52.5938" style="stroke: #A80036; stroke-width: 1.5;" width="188" x="354" y="427.9531"/><rect fill="#FEFECE" height="5" style="stroke: #A80036; stroke-width: 1.5;" width="10" x="349" y="432.9531"/><rect fill="#FEFECE" height="5" style="stroke: #A80036; stroke-width: 1.5;" width="10" x="349" y="470.5469"/><text fill="#000000" font-family="sans-serif" font-size="14" lengthAdjust="spacingAndGlyphs" textLength="68" x="364" y="450.9482">memory.c</text><text fill="#000000" font-family="sans-serif" font-size="14" lengthAdjust="spacingAndGlyphs" textLength="168" x="364" y="467.2451">(bump + buddy + SLAB)</text><!--MD5=[feb13187a4e12c0f7e43ab86a34517b0]
entity vm--><rect fill="#FEFECE" height="52.5938" style="stroke: #A80036; stroke-width: 1.5;" width="111" x="577.5" y="427.9531"/><rect fill="#FEFECE" height="5" style="stroke: #A80036; stroke-width: 1.5;" width="10" x="572.5" y="432.9531"/><rect fill="#FEFECE" height="5" style="stroke: #A80036; stroke-width: 1.5;" width="10" x="572.5" y="470.5469"/><text fill="#000000" font-family="sans-serif" font-size="14" lengthAdjust="spacingAndGlyphs" textLength="69" x="587.5" y="450.9482">vm_map.c</text><text fill="#000000" font-family="sans-serif" font-size="14" lengthAdjust="spacingAndGlyphs" textLength="91" x="587.5" y="467.2451">(mmap_user)</text><!--MD5=[90bd7bfaf115c178cab719a530508b90]
entity shell--><rect fill="#FEFECE" height="52.5938" style="stroke: #A80036; stroke-width: 1.5;" width="127" x="191.5" y="427.9531"/><rect fill="#FEFECE" height="5" style="stroke: #A80036; stroke-width: 1.5;" width="10" x="186.5" y="432.9531"/><rect fill="#FEFECE" height="5" style="stroke: #A80036; stroke-width: 1.5;" width="10" x="186.5" y="470.5469"/><text fill="#000000" font-family="sans-serif" font-size="14" lengthAdjust="spacingAndGlyphs" textLength="44" x="201.5" y="450.9482">shell.c</text><text fill="#000000" font-family="sans-serif" font-size="14" lengthAdjust="spacingAndGlyphs" textLength="107" x="201.5" y="467.2451">(MkM&gt;, exec...)</text><!--MD5=[87afc3183cd611f722a6432e8b020738]
entity macho--><rect fill="#FEFECE" height="52.5938" style="stroke: #A80036; stroke-width: 1.5;" width="162" x="44" y="560.4531"/><rect fill="#FEFECE" height="5" style="stroke: #A80036; stroke-width: 1.5;" width="10" x="39" y="565.4531"/><rect fill="#FEFECE" height="5" style="stroke: #A80036; stroke-width: 1.5;" width="10" x="39" y="603.0469"/><text fill="#000000" font-family="sans-serif" font-size="14" lengthAdjust="spacingAndGlyphs" textLength="66" x="54" y="583.4482">mach_o.c</text><text fill="#000000" font-family="sans-serif" font-size="14" lengthAdjust="spacingAndGlyphs" textLength="142" x="54" y="599.7451">(carregador Mach-O)</text><!--MD5=[9805a17437c21e8296e790ea7fec1f85]
entity elf--><rect fill="#FEFECE" height="52.5938" style="stroke: #A80036; stroke-width: 1.5;" width="175" x="241.5" y="560.4531"/><rect fill="#FEFECE" height="5" style="stroke: #A80036; stroke-width: 1.5;" width="10" x="236.5" y="565.4531"/><rect fill="#FEFECE" height="5" style="stroke: #A80036; stroke-width: 1.5;" width="10" x="236.5" y="603.0469"/><text fill="#000000" font-family="sans-serif" font-size="14" lengthAdjust="spacingAndGlyphs" textLength="58" x="251.5" y="583.4482">elf64.zig</text><text fill="#000000" font-family="sans-serif" font-size="14" lengthAdjust="spacingAndGlyphs" textLength="155" x="251.5" y="599.7451">(ELF64 musl static PIE)</text><!--MD5=[a92c8a785475c5179037b8ddefbb146f]
entity trl--><rect fill="#FEFECE" height="52.5938" style="stroke: #A80036; stroke-width: 1.5;" width="183" x="237.5" y="676.9531"/><rect fill="#FEFECE" height="5" style="stroke: #A80036; stroke-width: 1.5;" width="10" x="232.5" y="681.9531"/><rect fill="#FEFECE" height="5" style="stroke: #A80036; stroke-width: 1.5;" width="10" x="232.5" y="719.5469"/><text fill="#000000" font-family="sans-serif" font-size="14" lengthAdjust="spacingAndGlyphs" textLength="107" x="247.5" y="699.9482">syscall_linux.zig</text><text fill="#000000" font-family="sans-serif" font-size="14" lengthAdjust="spacingAndGlyphs" textLength="163" x="247.5" y="716.2451">(tradução Linux→TipOS)</text><!--MD5=[b9586600103814a499497f8f31890a4f]
entity fs--><rect fill="#FEFECE" height="52.5938" style="stroke: #A80036; stroke-width: 1.5;" width="178" x="905" y="427.9531"/><rect fill="#FEFECE" height="5" style="stroke: #A80036; stroke-width: 1.5;" width="10" x="900" y="432.9531"/><rect fill="#FEFECE" height="5" style="stroke: #A80036; stroke-width: 1.5;" width="10" x="900" y="470.5469"/><text fill="#000000" font-family="sans-serif" font-size="14" lengthAdjust="spacingAndGlyphs" textLength="17" x="915" y="450.9482">fs/</text><text fill="#000000" font-family="sans-serif" font-size="14" lengthAdjust="spacingAndGlyphs" textLength="158" x="915" y="467.2451">(FAT32, ext2, initramfs)</text><!--MD5=[212fbc2f00e2ef50dcc5380c5e254eb3]
entity drv--><rect fill="#FEFECE" height="52.5938" style="stroke: #A80036; stroke-width: 1.5;" width="166" x="1118" y="427.9531"/><rect fill="#FEFECE" height="5" style="stroke: #A80036; stroke-width: 1.5;" width="10" x="1113" y="432.9531"/><rect fill="#FEFECE" height="5" style="stroke: #A80036; stroke-width: 1.5;" width="10" x="1113" y="470.5469"/><text fill="#000000" font-family="sans-serif" font-size="14" lengthAdjust="spacingAndGlyphs" textLength="51" x="1128" y="450.9482">drivers/</text><text fill="#000000" font-family="sans-serif" font-size="14" lengthAdjust="spacingAndGlyphs" textLength="146" x="1128" y="467.2451">(ATA, PCI, USB, Virtio)</text><!--MD5=[008e91b25d7e7d48a5a8a1a8fcde7aec]
entity drvzig--><rect fill="#FEFECE" height="52.5938" style="stroke: #A80036; stroke-width: 1.5;" width="198" x="1319" y="427.9531"/><rect fill="#FEFECE" height="5" style="stroke: #A80036; stroke-width: 1.5;" width="10" x="1314" y="432.9531"/><rect fill="#FEFECE" height="5" style="stroke: #A80036; stroke-width: 1.5;" width="10" x="1314" y="470.5469"/><text fill="#000000" font-family="sans-serif" font-size="14" lengthAdjust="spacingAndGlyphs" textLength="99" x="1329" y="450.9482">kernel/drivers/</text><text fill="#000000" font-family="sans-serif" font-size="14" lengthAdjust="spacingAndGlyphs" textLength="178" x="1329" y="467.2451">(keyboard.zig, mouse.zig)</text><!--MD5=[6381cab0df0ee6548e755581de88eda0]
entity lib--><rect fill="#FEFECE" height="52.5938" style="stroke: #A80036; stroke-width: 1.5;" width="153" x="1552.5" y="427.9531"/><rect fill="#FEFECE" height="5" style="stroke: #A80036; stroke-width: 1.5;" width="10" x="1547.5" y="432.9531"/><rect fill="#FEFECE" height="5" style="stroke: #A80036; stroke-width: 1.5;" width="10" x="1547.5" y="470.5469"/><text fill="#000000" font-family="sans-serif" font-size="14" lengthAdjust="spacingAndGlyphs" textLength="20" x="1562.5" y="450.9482">lib/</text><text fill="#000000" font-family="sans-serif" font-size="14" lengthAdjust="spacingAndGlyphs" textLength="133" x="1562.5" y="467.2451">(gui/vesa, owt, wm)</text><!--MD5=[f45e9c5da69471a77b5ee919b9f47157]
entity libc--><rect fill="#FEFECE" height="52.5938" style="stroke: #A80036; stroke-width: 1.5;" width="156" x="2005" y="295.9531"/><rect fill="#FEFECE" height="5" style="stroke: #A80036; stroke-width: 1.5;" width="10" x="2000" y="300.9531"/><rect fill="#FEFECE" height="5" style="stroke: #A80036; stroke-width: 1.5;" width="10" x="2000" y="338.5469"/><text fill="#000000" font-family="sans-serif" font-size="14" lengthAdjust="spacingAndGlyphs" textLength="75" x="2015" y="318.9482">libc própria</text><text fill="#000000" font-family="sans-serif" font-size="14" lengthAdjust="spacingAndGlyphs" textLength="136" x="2015" y="335.2451">(stdio, stdlib, string)</text><!--MD5=[009411754c292040f341cbf23855b97f]
entity graphy--><rect fill="#FEFECE" height="52.5938" style="stroke: #A80036; stroke-width: 1.5;" width="96" x="2035" y="179.9531"/><rect fill="#FEFECE" height="5" style="stroke: #A80036; stroke-width: 1.5;" width="10" x="2030" y="184.9531"/><rect fill="#FEFECE" height="5" style="stroke: #A80036; stroke-width: 1.5;" width="10" x="2030" y="222.5469"/><text fill="#000000" font-family="sans-serif" font-size="14" lengthAdjust="spacingAndGlyphs" textLength="47" x="2045" y="202.9482">graphy</text><text fill="#000000" font-family="sans-serif" font-size="14" lengthAdjust="spacingAndGlyphs" textLength="76" x="2045" y="219.2451">(editor TUI)</text><!--MD5=[83b38e9af4efda8ed89252aa203a6d0f]
entity disp--><rect fill="#FEFECE" height="52.5938" style="stroke: #A80036; stroke-width: 1.5;" width="174" x="2382" y="179.9531"/><rect fill="#FEFECE" height="5" style="stroke: #A80036; stroke-width: 1.5;" width="10" x="2377" y="184.9531"/><rect fill="#FEFECE" height="5" style="stroke: #A80036; stroke-width: 1.5;" width="10" x="2377" y="222.5469"/><text fill="#000000" font-family="sans-serif" font-size="14" lengthAdjust="spacingAndGlyphs" textLength="42" x="2392" y="202.9482">../disp</text><text fill="#000000" font-family="sans-serif" font-size="14" lengthAdjust="spacingAndGlyphs" textLength="154" x="2392" y="219.2451">(disp-wm, compositor)</text><!--MD5=[9b8c4ddb7fd7c3dd805b94e8375599e5]
entity term--><rect fill="#FEFECE" height="52.5938" style="stroke: #A80036; stroke-width: 1.5;" width="85" x="2261.5" y="179.9531"/><rect fill="#FEFECE" height="5" style="stroke: #A80036; stroke-width: 1.5;" width="10" x="2256.5" y="184.9531"/><rect fill="#FEFECE" height="5" style="stroke: #A80036; stroke-width: 1.5;" width="10" x="2256.5" y="222.5469"/><text fill="#000000" font-family="sans-serif" font-size="14" lengthAdjust="spacingAndGlyphs" textLength="45" x="2271.5" y="202.9482">../term</text><text fill="#000000" font-family="sans-serif" font-size="14" lengthAdjust="spacingAndGlyphs" textLength="65" x="2271.5" y="219.2451">(terminal)</text><!--MD5=[3247ee9c00eb75242b6094f47f86fb97]
entity qemu--><rect fill="#FEFECE" height="52.5938" style="stroke: #A80036; stroke-width: 1.5;" width="220" x="761" y="28.9531"/><rect fill="#FEFECE" height="5" style="stroke: #A80036; stroke-width: 1.5;" width="10" x="756" y="33.9531"/><rect fill="#FEFECE" height="5" style="stroke: #A80036; stroke-width: 1.5;" width="10" x="756" y="71.5469"/><text fill="#000000" font-family="sans-serif" font-size="14" lengthAdjust="spacingAndGlyphs" textLength="42" x="771" y="51.9482">QEMU</text><text fill="#000000" font-family="sans-serif" font-size="14" lengthAdjust="spacingAndGlyphs" textLength="200" x="771" y="68.2451">(TipOS.iso + disk.img FAT32)</text><!--MD5=[24abbb3599f437cfafd01e2d0691c9e8]
entity switch.asm--><ellipse cx="1987" cy="586.9531" fill="#FEFECE" rx="8" ry="8" style="stroke: #A80036; stroke-width: 2.0;"/><text fill="#000000" font-family="sans-serif" font-size="14" lengthAdjust="spacingAndGlyphs" textLength="77" x="1948.5" y="616.9482">switch.asm</text><!--MD5=[2ef461bc69d695535e83223ef4243f8b]
entity disk.img--><ellipse cx="2129" cy="586.9531" fill="#FEFECE" rx="8" ry="8" style="stroke: #A80036; stroke-width: 2.0;"/><text fill="#000000" font-family="sans-serif" font-size="14" lengthAdjust="spacingAndGlyphs" textLength="57" x="2100.5" y="616.9482">disk.img</text><!--MD5=[c3e771944e0e3c526ac4d1149e5a5024]
link qemu to boot--><path d="M871,82.0631 C871,107.6531 871,147.0131 871,174.3731 " fill="none" id="qemu-&gt;boot" style="stroke: #A80036; stroke-width: 1.0;"/><polygon fill="#A80036" points="871,179.6731,875,170.6731,871,174.6731,867,170.6731,871,179.6731" style="stroke: #A80036; stroke-width: 1.0;"/><text fill="#000000" font-family="sans-serif" font-size="13" lengthAdjust="spacingAndGlyphs" textLength="126" x="872" y="125.02">GRUB2 (Multiboot2)</text><!--MD5=[f114e17202ad332d0d72d2a477a0fe01]
link boot to kmain--><path d="M871,233.0331 C871,249.9331 871,272.1831 871,290.1331 " fill="none" id="boot-&gt;kmain" style="stroke: #A80036; stroke-width: 1.0;"/><polygon fill="#A80036" points="871,295.5631,875,286.5631,871,290.5631,867,286.5631,871,295.5631" style="stroke: #A80036; stroke-width: 1.0;"/><!--MD5=[8ee2f198fafaa3562426530f46efdbf7]
link kmain to idt--><path d="M833.12,326.6431 C727.53,336.0531 421.41,366.9831 174,427.9531 C169.68,429.0131 165.26,430.2031 160.82,431.4731 " fill="none" id="kmain-&gt;idt" style="stroke: #A80036; stroke-width: 1.0;"/><polygon fill="#A80036" points="156,432.8831,165.76,434.2031,160.8,431.4831,163.52,426.5231,156,432.8831" style="stroke: #A80036; stroke-width: 1.0;"/><!--MD5=[f0c73f941d14c9c3be8f1a07ba21ac89]
link kmain to syscall--><path d="M908.63,326.3831 C1028.35,336.0831 1410.95,369.8231 1723,427.9531 C1727.19,428.7331 1731.47,429.5831 1735.78,430.4831 " fill="none" id="kmain-&gt;syscall" style="stroke: #A80036; stroke-width: 1.0;"/><polygon fill="#A80036" points="1740.85,431.5631,1732.8671,425.7948,1735.9573,430.5331,1731.219,433.6232,1740.85,431.5631" style="stroke: #A80036; stroke-width: 1.0;"/><!--MD5=[4cdb7151f7de4ff88625f8c5c5f66606]
link kmain to proc--><path d="M856.38,349.1331 C844.22,370.5031 826.89,400.9531 814.09,423.4331 " fill="none" id="kmain-&gt;proc" style="stroke: #A80036; stroke-width: 1.0;"/><polygon fill="#A80036" points="811.59,427.8231,819.5179,421.9794,814.063,423.4775,812.5649,418.0226,811.59,427.8231" style="stroke: #A80036; stroke-width: 1.0;"/><!--MD5=[9ad507b6870be41582f41f113bcabfcc]
link kmain to mem--><path d="M833.46,334.9931 C767.21,355.3531 627.91,398.1631 536.17,426.3531 " fill="none" id="kmain-&gt;mem" style="stroke: #A80036; stroke-width: 1.0;"/><polygon fill="#A80036" points="531.3,427.8531,541.0791,429.0233,536.078,426.3797,538.7216,421.3786,531.3,427.8531" style="stroke: #A80036; stroke-width: 1.0;"/><!--MD5=[0f2eb1f86843b490a5d855ba7e3f003b]
link kmain to vm--><path d="M833.29,344.0531 C793.12,365.9931 729.27,400.8631 684.49,425.3231 " fill="none" id="kmain-&gt;vm" style="stroke: #A80036; stroke-width: 1.0;"/><polygon fill="#A80036" points="679.95,427.8131,689.7684,427.0396,684.3455,425.4299,685.9552,420.0069,679.95,427.8131" style="stroke: #A80036; stroke-width: 1.0;"/><!--MD5=[9a420444c6f5f0fb3a2d99cff979f220]
link kmain to shell--><path d="M833.47,329.3631 C745.86,343.4631 521.33,381.4031 337,427.9531 C332.65,429.0531 328.18,430.2431 323.7,431.4931 " fill="none" id="kmain-&gt;shell" style="stroke: #A80036; stroke-width: 1.0;"/><polygon fill="#A80036" points="318.82,432.8731,328.5688,434.2736,323.6314,431.5128,326.3922,426.5754,318.82,432.8731" style="stroke: #A80036; stroke-width: 1.0;"/><!--MD5=[9c859039e88704c0ced5bea366366ddd]
link kmain to fs--><path d="M895.3,349.1331 C915.69,370.6831 944.8,401.4531 966.13,423.9931 " fill="none" id="kmain-&gt;fs" style="stroke: #A80036; stroke-width: 1.0;"/><polygon fill="#A80036" points="969.75,427.8231,966.457,418.5411,966.3085,424.196,960.6536,424.0475,969.75,427.8231" style="stroke: #A80036; stroke-width: 1.0;"/><!--MD5=[85bfec736332b7888904e11edc2efb5c]
link kmain to drv--><path d="M908.53,338.2431 C962.56,359.5231 1063.21,399.1731 1131.16,425.9431 " fill="none" id="kmain-&gt;drv" style="stroke: #A80036; stroke-width: 1.0;"/><polygon fill="#A80036" points="1135.99,427.8431,1129.0745,420.8306,1131.3359,426.0157,1126.1507,428.2771,1135.99,427.8431" style="stroke: #A80036; stroke-width: 1.0;"/><!--MD5=[bfa134354b55c813d24929b2080f00cf]
link kmain to drvzig--><path d="M908.6,332.3931 C991.09,351.9931 1190.43,399.3631 1313.86,428.7031 " fill="none" id="kmain-&gt;drvzig" style="stroke: #A80036; stroke-width: 1.0;"/><polygon fill="#A80036" points="1318.95,429.9131,1311.1181,423.9415,1314.0854,428.7576,1309.2692,431.7249,1318.95,429.9131" style="stroke: #A80036; stroke-width: 1.0;"/><!--MD5=[fcd0f9efa92d592373e0f9a3a3ec3efc]
link kmain to lib--><path d="M908.7,327.9231 C1010.43,340.3031 1298.77,377.4831 1535,427.9531 C1539.1,428.8331 1543.29,429.7731 1547.51,430.7731 " fill="none" id="kmain-&gt;lib" style="stroke: #A80036; stroke-width: 1.0;"/><polygon fill="#A80036" points="1552.47,431.9531,1544.6587,425.9545,1547.6094,430.7809,1542.783,433.7315,1552.47,431.9531" style="stroke: #A80036; stroke-width: 1.0;"/><!--MD5=[fa3dd3fa0056c7e412a41bbb28062e07]
link shell to macho--><path d="M226.52,481.0131 C216.41,490.2831 205.06,500.9431 195,510.9531 C180.35,525.5431 164.59,542.3231 151.74,556.3031 " fill="none" id="shell-&gt;macho" style="stroke: #A80036; stroke-width: 1.0;"/><polygon fill="#A80036" points="148.2,560.1731,157.226,556.2321,151.5747,556.4838,151.3231,550.8325,148.2,560.1731" style="stroke: #A80036; stroke-width: 1.0;"/><text fill="#000000" font-family="sans-serif" font-size="13" lengthAdjust="spacingAndGlyphs" textLength="82" x="196" y="524.02">exec .macho</text><!--MD5=[bb4a44b81d29a2d1f5193ddc5526cd1a]
link shell to elf--><path d="M269.62,481.2331 C281.78,502.6831 299.11,533.2431 311.91,555.8231 " fill="none" id="shell-&gt;elf" style="stroke: #A80036; stroke-width: 1.0;"/><polygon fill="#A80036" points="314.41,560.2231,313.4733,550.4189,311.9539,555.8679,306.5049,554.3486,314.41,560.2231" style="stroke: #A80036; stroke-width: 1.0;"/><text fill="#000000" font-family="sans-serif" font-size="13" lengthAdjust="spacingAndGlyphs" textLength="72" x="295" y="524.02">exec ELF64</text><!--MD5=[7047169ac8e18af6bd19ad5d0b4ff235]
link elf to trl--><path d="M329,613.6531 C329,630.7431 329,653.2831 329,671.3831 " fill="none" id="elf-&gt;trl" style="stroke: #A80036; stroke-width: 1.0;"/><polygon fill="#A80036" points="329,676.8431,333,667.8431,329,671.8431,325,667.8431,329,676.8431" style="stroke: #A80036; stroke-width: 1.0;"/><!--MD5=[80e9f4c05eda780691d1d1d563f6cef3]
link proc to switch.asm--><path d="M870.22,477.3231 C876.2,478.6931 882.18,479.9331 888,480.9531 C1343.21,560.8131 1477.11,443.9931 1925,557.9531 C1942.38,562.3731 1960.95,571.4031 1973.19,578.0131 " fill="none" id="proc-&gt;switch.asm" style="stroke: #A80036; stroke-width: 1.0;"/><polygon fill="#A80036" points="1977.71,580.5031,1971.7655,572.6506,1973.3332,578.0858,1967.8979,579.6535,1977.71,580.5031" style="stroke: #A80036; stroke-width: 1.0;"/><text fill="#000000" font-family="sans-serif" font-size="13" lengthAdjust="spacingAndGlyphs" textLength="126" x="1777" y="524.02">contexto + FS.base</text><!--MD5=[df6098b0a3e02508205944f6860c07d5]
link libc to syscall--><path d="M2032.34,348.9831 C1988.64,371.0031 1925.64,402.7431 1880.57,425.4531 " fill="none" id="libc-&gt;syscall" style="stroke: #A80036; stroke-width: 1.0;"/><polygon fill="#A80036" points="1875.99,427.7631,1885.8281,427.3033,1880.4593,425.5213,1882.2413,420.1525,1875.99,427.7631" style="stroke: #A80036; stroke-width: 1.0;"/><text fill="#000000" font-family="sans-serif" font-size="13" lengthAdjust="spacingAndGlyphs" textLength="93" x="1962" y="394.02">int 0x80 (XNU)</text><!--MD5=[95fccba04fcd7da4a4fd24dba740ad39]
link graphy to libc--><path d="M2083,233.0331 C2083,249.9331 2083,272.1831 2083,290.1331 " fill="none" id="graphy-&gt;libc" style="stroke: #A80036; stroke-width: 1.0;"/><polygon fill="#A80036" points="2083,295.5631,2087,286.5631,2083,290.5631,2079,286.5631,2083,295.5631" style="stroke: #A80036; stroke-width: 1.0;"/><!--MD5=[57ad1b441066965f1fe5d9bc87f895c1]
link disp to syscall--><path d="M2432.03,233.1231 C2378.26,269.3331 2274.24,335.2131 2177,372.9531 C2090.68,406.4531 1986.79,428.0931 1914.34,440.4131 " fill="none" id="disp-&gt;syscall" style="stroke: #A80036; stroke-width: 1.0;"/><polygon fill="#A80036" points="1909.18,441.2831,1918.7186,443.7357,1914.1108,440.4542,1917.3923,435.8464,1909.18,441.2831" style="stroke: #A80036; stroke-width: 1.0;"/><text fill="#000000" font-family="sans-serif" font-size="13" lengthAdjust="spacingAndGlyphs" textLength="131" x="2332" y="327.02">syscalls 202/203 (fb)</text><!--MD5=[e256319fdf094e0f299ffe92168a579b]
link term to libc--><path d="M2261.39,229.4331 C2226.07,247.6531 2175.65,273.6631 2137.42,293.3831 " fill="none" id="term-&gt;libc" style="stroke: #A80036; stroke-width: 1.0;"/><polygon fill="#A80036" points="2132.82,295.7531,2142.6514,295.1677,2137.2603,293.4545,2138.9736,288.0633,2132.82,295.7531" style="stroke: #A80036; stroke-width: 1.0;"/><!--MD5=[fac38af7808553a04fcf4552e401668d]
link fs to disk.img--><path d="M1083.07,478.1131 C1089.12,479.2131 1095.13,480.1731 1101,480.9531 C1155.49,488.1931 2043.45,481.7131 2090,510.9531 C2111.85,524.6731 2122.08,554.9231 2126.35,572.5231 " fill="none" id="fs-&gt;disk.img" style="stroke: #A80036; stroke-width: 1.0;"/><polygon fill="#A80036" points="2127.49,577.5531,2129.3825,567.8878,2126.3751,572.679,2121.5839,569.6716,2127.49,577.5531" style="stroke: #A80036; stroke-width: 1.0;"/><text fill="#000000" font-family="sans-serif" font-size="13" lengthAdjust="spacingAndGlyphs" textLength="39" x="2107" y="524.02">FAT32</text><!--MD5=[a38b8b63a3a37e4326b194be387c32af]
@startuml

title TipOS — Visão Geral dos Componentes

skinparam componentStyle rectangle
skinparam shadowing false
skinparam defaultFontName "SansSerif"
skinparam monochrome false

package "OvsbMk — Kernel (ring 0)" as kernel #E8F0FE {
    component "boot64.asm\n(boot, long mode, GDT, paging)" as boot
    component "kernel.c\n(kmain)" as kmain
    component "idt.c/asm\n(interrupções)" as idt
    component "syscall.c\n(30 syscalls, int 0x80)" as syscall
    component "process.c\n(PCB 64 slots, RR)" as proc
    component "memory.c\n(bump + buddy + SLAB)" as mem
    component "vm_map.c\n(mmap_user)" as vm
    component "shell.c\n(MkM>, exec...)" as shell
    component "mach_o.c\n(carregador Mach-O)" as macho
    component "elf64.zig\n(ELF64 musl static PIE)" as elf
    component "syscall_linux.zig\n(tradução Linux→TipOS)" as trl
    component "fs/\n(FAT32, ext2, initramfs)" as fs
    component "drivers/\n(ATA, PCI, USB, Virtio)" as drv
    component "kernel/drivers/\n(keyboard.zig, mouse.zig)" as drvzig
    component "lib/\n(gui/vesa, owt, wm)" as lib
}

package "src/userland — Userland (ring 3)" as ul {
    component "libc própria\n(stdio, stdlib, string)" as libc
    component "graphy\n(editor TUI)" as graphy
}

package "Repos irmãos" as irmaos {
    component "../disp\n(disp-wm, compositor)" as disp
    component "../term\n(terminal)" as term
}

component "QEMU\n(TipOS.iso + disk.img FAT32)" as qemu

qemu - -> boot : "GRUB2 (Multiboot2)"
boot - -> kmain
kmain - -> idt
kmain - -> syscall
kmain - -> proc
kmain - -> mem
kmain - -> vm
kmain - -> shell
kmain - -> fs
kmain - -> drv
kmain - -> drvzig
kmain - -> lib
shell - -> macho : "exec .macho"
shell - -> elf : "exec ELF64"
elf - -> trl
proc - -> switch.asm : "contexto + FS.base"

libc - -> syscall : "int 0x80 (XNU)"
graphy - -> libc
disp - -> syscall : "syscalls 202/203 (fb)"
term - -> libc

fs - -> disk.img : "FAT32"
@enduml

PlantUML version 1.2020.02(Sun Mar 01 10:22:07 UTC 2020)
(GPL source distribution)
Java Runtime: OpenJDK Runtime Environment
JVM: OpenJDK 64-Bit Server VM
Java Version: 1.8.0_502-b07
Operating System: Linux
Default Encoding: UTF-8
Language: pt
Country: BR
--></g></svg>